Coordinates
version=1
nRows=11
nColumns=36
inDegrees=yes

Units are S.I. units (second, meters, Newtons, ...)
If the header above contains a line with 'inDegrees', this indicates whether rotational values are in degrees (yes) or radians (no).

endheader
time	pelvis_tilt	pelvis_list	pelvis_rotation	pelvis_tx	pelvis_ty	pelvis_tz	hip_flexion_r	hip_adduction_r	hip_rotation_r	knee_angle_r	knee_angle_r_beta	ankle_angle_r	subtalar_angle_r	mtp_angle_r	hip_flexion_l	hip_adduction_l	hip_rotation_l	knee_angle_l	knee_angle_l_beta	ankle_angle_l	subtalar_angle_l	mtp_angle_l	lumbar_extension	lumbar_bending	lumbar_rotation	arm_flex_r	arm_add_r	arm_rot_r	elbow_flex_r	pro_sup_r	arm_flex_l	arm_add_l	arm_rot_l	elbow_flex_l	pro_sup_l
      0.85000000	     -2.80511455	      1.10610859	     -7.45109318	      0.81416822	      1.14825481	     -0.22239821	     -2.59626347	     -3.04519317	     -1.92591783	     38.53107030	      0.67249404	     -9.23573015	      5.46554118	     -6.66521209	     13.07049201	      1.77051459	    -13.84732658	      3.57127780	      0.06233056	     -0.90994265	      8.88868562	     -6.66521209	    -15.36060180	    -17.64653782	     -2.64330090	    -18.02699297	    -10.60705206	     -6.42098284	     46.43234609	    110.30198393	     -4.61542104	    -11.47982349	    -18.38591655	     43.18798155	    107.00658636
      0.86000000	     -2.88637769	      1.05157833	     -7.89068047	      0.82404008	      1.14964560	     -0.22176536	     -1.35595738	     -3.07124744	     -1.12821494	     40.77279243	      0.71161947	     -9.84991170	      4.61477116	     -6.68027014	     12.46517018	      1.73473399	    -14.19702086	      3.35171187	      0.05849841	     -0.77680590	      8.77932289	     -6.68027014	    -15.34452848	    -18.18035530	     -2.43056551	    -18.54245746	    -10.75411181	     -5.97275953	     46.74300853	    110.29571272	     -4.33475207	    -11.64621183	    -18.66562489	     43.47788312	    107.09655862
      0.87000000	     -2.76213725	      0.92735725	     -8.21118692	      0.83395320	      1.15124742	     -0.22122514	     -0.43251759	     -3.03848931	     -0.50944131	     42.79627877	      0.74693597	    -10.11843926	      4.20820876	     -6.68541038	     11.61094474	      1.68722904	    -14.27519776	      3.11127314	      0.05430196	     -0.45050126	      8.72362789	     -6.68541038	    -15.58931660	    -18.62379575	     -2.38616875	    -18.94126132	    -10.86180670	     -5.64806571	     46.95150616	    110.32206205	     -4.05599620	    -11.87470772	    -18.79655447	     43.76810775	    107.13305261
      0.88000000	     -2.87312731	      0.87687238	     -8.53179985	      0.84362198	      1.15244010	     -0.22063287	      0.78793030	     -2.98889066	      0.14884560	     44.80664604	      0.78202350	    -10.21888689	      3.19348625	     -6.70395599	     11.07578027	      1.67064943	    -14.37071791	      2.93374786	      0.05120356	     -0.35619449	      8.41547166	     -6.70395599	    -15.55419111	    -19.12436358	     -2.35881405	    -19.42231693	    -11.10955608	     -4.87638475	     47.31275686	    110.35910085	     -3.92434179	    -12.05657978	    -19.13778790	     44.28614135	    107.21233904
      0.89000000	     -2.74528895	      0.75109007	     -8.74926068	      0.85335744	      1.15392639	     -0.22020703	      1.65065647	     -2.91379543	      0.61478725	     46.57189082	      0.81283283	     -9.99900181	      2.58937587	     -6.71080526	     10.25273801	      1.64125551	    -14.25956338	      2.73596626	      0.04775162	      0.00961807	      8.31778049	     -6.71080526	    -15.80955516	    -19.51473326	     -2.40008964	    -19.80991359	    -11.25727678	     -4.47338688	     47.50411837	    110.39627649	     -3.68118343	    -12.26169051	    -19.25928242	     44.66713817	    107.24514335
      0.90000000	     -2.76831235	      0.59421324	     -8.87057041	      0.86288885	      1.15516944	     -0.21985506	      2.64575289	     -2.74794107	      0.98101720	     48.20399647	      0.84131845	     -9.77188887	      1.62803420	     -6.74501972	      9.63917179	      1.56976834	    -13.87198684	      2.59364354	      0.04526762	      0.02792182	      7.72255615	     -6.74501972	    -15.93892334	    -19.84031172	     -2.75406892	    -19.99934319	    -11.54657776	     -3.56813643	     47.55373851	    110.43253422	     -3.68528621	    -12.42557899	    -19.74638304	     45.30086017	    107.25790230
      0.91000000	     -2.65791827	      0.43418460	     -8.99779410	      0.87241112	      1.15651289	     -0.21951157	      3.45305376	     -2.60410531	      1.30953133	     49.66683442	      0.86684979	     -9.22065104	      0.83178516	     -6.75272964	      8.90399369	      1.49670764	    -13.71021228	      2.50013457	      0.04363558	      0.30994481	      7.66322421	     -6.75272964	    -16.20305992	    -20.14524080	     -2.86623753	    -20.35910782	    -11.65926397	     -3.30038414	     47.75060674	    110.37265755	     -3.41874809	    -12.64667244	    -19.80602490	     45.66371054	    107.20005202
      0.92000000	     -2.57758317	      0.27675973	     -9.10125889	      0.88182484	      1.15775063	     -0.21919240	      4.27254901	     -2.44722189	      1.58248027	     50.99458887	      0.89002348	     -8.65436850	     -0.16699141	     -6.75985492	      8.23352944	      1.42465307	    -13.51558893	      2.44331681	      0.04264392	      0.53009188	      7.52095064	     -6.75985492	    -16.42991492	    -20.43686606	     -3.00296777	    -20.68725226	    -11.76234570	     -3.05075402	     47.90768384	    110.31459587	     -3.16304459	    -12.86813922	    -19.88095926	     46.04926060	    107.13250824
      0.93000000	     -2.52082330	      0.13146452	     -9.19711178	      0.89109460	      1.15891626	     -0.21892508	      5.09987636	     -2.29686165	      1.79747868	     52.17683665	      0.91065759	     -8.11826542	     -1.39648848	     -6.76747244	      7.60385060	      1.37141678	    -13.30694922	      2.38151841	      0.04156534	      0.70282501	      7.27176573	     -6.76747244	    -16.62642386	    -20.71466851	     -3.14596299	    -20.98582984	    -11.83693813	     -2.84366244	     48.03143043	    110.26003938	     -2.90881031	    -13.07015063	    -19.98839191	     46.46542415	    107.05860931
      0.94000000	     -2.46315172	     -0.00147642	     -9.28257831	      0.90028847	      1.16001171	     -0.21867418	      5.91239575	     -2.15087060	      1.98719269	     53.22898134	      0.92902098	     -7.63060137	     -2.77551577	     -6.77495505	      6.98618522	      1.33590203	    -13.10168153	      2.32846435	      0.04063937	      0.85519010	      6.97611286	     -6.77495505	    -16.81659515	    -20.99796367	     -3.27358004	    -21.26883067	    -11.87295329	     -2.72444081	     48.10837373	    110.19331677	     -2.62953344	    -13.26489886	    -20.12573579	     46.88217750	    106.97740588
      0.95000000	     -2.46858327	     -0.15341045	     -9.33071924	      0.90934604	      1.16101423	     -0.21848142	      6.76397193	     -1.95700632	      2.09567615	     54.08038064	      0.94388070	     -7.86343114	     -4.91952750	     -6.79720089	      6.41483314	      1.29600707	    -12.64215803	      2.20850722	      0.03854572	      0.70421712	      6.13702940	     -6.79720089	    -16.95700025	    -21.23171082	     -3.46949508	    -21.50555843	    -11.87429791	     -2.74649214	     48.17640039	    110.16574949	     -2.39730959	    -13.39209242	    -20.45012761	     47.42126474	    106.84556102
